HIERARCHY
ROOT ui
{
	 OFFSET 0 0 0
	 CHANNELS 3 XPosition YPosition Z Position
	 EndSite
	 {
	 OFFSET 0 -1 0
	 }
}
ROOT li
{
	 OFFSET 0 0 0
	 CHANNELS 3 XPosition YPosition Z Position
	 EndSite
	 {
	 OFFSET 0 -1 0
	 }
}
ROOT ul
{
	 OFFSET 0 0 0
	 CHANNELS 3 XPosition YPosition Z Position
	 EndSite
	 {
	 OFFSET 0 -1 0
	 }
}
ROOT ll
{
	 OFFSET 0 0 0
	 CHANNELS 3 XPosition YPosition Z Position
	 EndSite
	 {
	 OFFSET 0 -1 0
	 }
}
ROOT tt
{
	 OFFSET 0 0 0
	 CHANNELS 3 XPosition YPosition Z Position
	 EndSite
	 {
	 OFFSET 0 -1 0
	 }
}
ROOT tb
{
	 OFFSET 0 0 0
	 CHANNELS 3 XPosition YPosition Z Position
	 EndSite
	 {
	 OFFSET 0 -1 0
	 }
}
ROOT td
{
	 OFFSET 0 0 0
	 CHANNELS 3 XPosition YPosition Z Position
	 EndSite
	 {
	 OFFSET 0 -1 0
	 }
}
ROOT v
{
	 OFFSET 0 0 0
	 CHANNELS 3 XPosition YPosition Z Position
	 EndSite
	 {
	 OFFSET 0 -1 0
	 }
}
ROOT bn
{
	 OFFSET 0 0 0
	 CHANNELS 3 XPosition YPosition Z Position
	 EndSite
	 {
	 OFFSET 0 -1 0
	 }
}
MOTION
Frames: 32
Frame Time: 0.002
2.6177799701690674E-4	3.496600091457367E-4	0		0.5566438598632812	-2.354351806640625	0		-1.0204391479492188	0.027819936752319335	0		-0.7153474731445313	-2.60810595703125	0		1.3413018798828125	-0.7990634765625	0		3.18886474609375	-0.18198956298828126	0		4.748201171875	-0.10561009216308594	0		5.58725732421875	0.08969776153564453	0		-0.08500956726074219	5.98832958984375	0		
3.207769989967346E-4	3.9433398842811585E-4	0		0.5458936157226563	-2.3481181640625	0		-1.0303499755859375	0.02997264289855957	0		-0.68780419921875	-2.583502197265625	0		1.3352894287109376	-0.8058710327148437	0		3.185856201171875	-0.18676510620117187	0		4.74338623046875	-0.09729143524169923	0		5.5665869140625	0.10829228210449218	0		-0.1003664779663086	5.97759814453125	0		
-0.0026760480403900146	-0.0035157859325408935	0		0.5440060424804688	-2.351021728515625	0		-1.0302879638671876	0.029975486755371095	0		-0.727919189453125	-2.601880615234375	0		1.3353848876953125	-0.8057732543945313	0		3.194895751953125	-0.18872845458984375	0		4.74833203125	-0.10513129425048828	0		5.57253955078125	0.10147027587890625	0		-0.08636400604248047	5.98942626953125	0		
4.506739974021912E-4	4.812150001525879E-4	0		0.5530402221679688	-2.3590927734375	0		-1.0242982177734374	0.024889652252197265	0		-0.6809099731445313	-2.61257080078125	0		1.3354820556640625	-0.8056802368164062	0		3.186000732421875	-0.18643023681640625	0		4.74840283203125	-0.10490957641601563	0		5.5674375	0.09079948425292969	0		-0.11863972473144531	5.98194775390625	0		
5.208380222320556E-4	5.215259790420533E-4	0		0.4944690856933594	-2.340150390625	0		-1.0242288818359375	0.024894306182861328	0		-0.71468505859375	-2.608044677734375	0		1.338639892578125	-0.801638916015625	0		3.189152099609375	-0.18132464599609374	0		4.74359716796875	-0.09662996673583985	0		5.5826376953125	0.09980751037597656	0		-0.07051310729980469	5.99926171875	0		
5.941950082778931E-4	5.58788001537323E-4	0		0.5485352172851562	-2.3459052734375	0		-1.0319608154296875	0.038017608642578124	0		-0.7145296020507812	-2.60802978515625	0		1.338738525390625	-0.8015595703125	0		3.195125732421875	-0.18827607727050782	0		4.74855322265625	-0.10451740264892578	0		5.5719638671875	0.11718315124511719	0		-0.08579146575927735	5.9885224609375	0		
6.704689860343933E-4	5.922430157661438E-4	0		0.5217094116210937	-2.34345361328125	0		-1.0240806884765625	0.02490437698364258	0		-0.6913238525390625	-2.6043603515625	0		1.335777587890625	-0.8054437255859375	0		3.214264892578125	-0.18443836975097655	0		4.7596162109375	-0.10551657104492188	0		5.58278173828125	0.10020858764648438	0		-0.1010438232421875	5.97777880859375	0		
7.49235987663269E-4	6.209930181503296E-4	0		0.5447363891601562	-2.3507548828125	0		-1.02992724609375	0.029997941970825195	0		-0.758788330078125	-2.57733642578125	0		1.3358753662109375	-0.805383544921875	0		3.1863212890625	-0.18591609191894531	0		4.74383349609375	-0.09613813018798828	0		5.566994140625	0.10960641479492188	0		-0.12101405334472656	5.98410302734375	0		
-0.002229305982589722	-0.003310811996459961	0		0.5117314453125	-2.359228759765625	0		-1.0239222412109374	0.024912553787231444	0		-0.680173828125	-2.6125009765625	0		1.335971435546875	-0.8053350830078125	0		3.186405517578125	-0.1858323974609375	0		4.74879638671875	-0.10409837341308593	0		5.58293701171875	0.10049807739257813	0		-0.10391505432128906	5.99286962890625	0		
9.120680093765259E-4	6.605319976806641E-4	0		0.5579317016601563	-2.35389013671875	0		-1.0157371826171875	0.03179446411132812	0		-0.7119613037109375	-2.606018798828125	0		1.3421685791015625	-0.7983894653320313	0		3.202607666015625	-0.17800912475585937	0		4.74607373046875	-0.09097042846679687	0		5.577107421875	0.10668344116210937	0		-0.10293407440185547	5.99186962890625	0		
9.95127022266388E-4	6.697490215301513E-4	0		0.5242347412109375	-2.340371337890625	0		-1.010595458984375	0.03571898651123047	0		-0.65181494140625	-2.6039091796875	0		1.3811807861328125	-0.8039467163085937	0		3.189649169921875	-0.18077508544921875	0		4.75508251953125	-0.09604837036132813	0		5.583099609375	0.10065830993652344	0		-0.08497075653076172	5.9876103515625	0		
-0.0019804630279541017	-0.0032837839126586914	0		0.5472237548828125	-2.34770849609375	0		-1.0236741943359375	0.02490969657897949	0		-0.71581494140625	-2.609958740234375	0		1.3393028564453124	-0.80131396484375	0		3.170661376953125	-0.18547421264648437	0		4.74904833984375	-0.103932373046875	0		5.558333984375	0.11105907440185547	0		-0.08590306854248046	5.98862646484375	0		
0.0011622519493103027	6.644030213356018E-4	0		0.520341552734375	-2.345313720703125	0		-1.035440673828125	0.0350795669555664	0		-0.6546918334960937	-2.607873291015625	0		1.3363277587890625	-0.8052748413085937	0		3.191638671875	-0.19279035949707032	0		4.75525	-0.09602615356445313	0		5.573267578125	0.10083399200439454	0		-0.10098524475097656	5.97784375	0		
-0.0018136940002441407	-0.0033056230545043946	0		0.5473831176757813	-2.34773193359375	0		-1.0235073852539063	0.02489108085632324	0		-0.7156564331054688	-2.609978271484375	0		1.336407958984375	-0.8052949829101562	0		3.186825927734375	-0.18574398803710937	0		4.74921484375	-0.10396920013427734	0		5.5682177734375	0.09187307739257812	0		-0.11881784057617187	5.98209619140625	0		
0.0013279869556427001	6.261299848556519E-4	0		0.5412687377929688	-2.3596689453125	0		-1.0153213500976563	0.03175639724731445	0		-0.6775992431640625	-2.61056103515625	0		1.3395430908203125	-0.8013740844726562	0		3.186906982421875	-0.18579302978515624	0		4.7602802734375	-0.10519448089599609	0		5.59240234375	0.09844684600830078	0		-0.10450978088378907	5.9938642578125	0		
0.0014095580577850341	5.953059792518615E-4	0		0.5246064453125	-2.340455322265625	0		-1.0192985229492189	0.027797916412353515	0		-0.724395263671875	-2.599885009765625	0		1.339614990234375	-0.801421142578125	0		3.190060302734375	-0.18090773010253905	0		4.7554951171875	-0.09620958709716797	0		5.58351611328125	0.10048197937011719	0		-0.09960919189453125	5.97676220703125	0		
0.0014897450208663941	5.574179887771607E-4	0		0.5495725708007813	-2.34587353515625	0		-0.9472855224609374	0.02270321273803711	0		-0.6904193115234375	-2.604417724609375	0		1.3396824951171875	-0.8014800415039063	0		3.21101611328125	-0.18930787658691406	0		4.75557373046875	-0.09632217407226562	0		5.577732421875	0.10944482421875	0		-0.10042008972167969	5.97774072265625	0		
0.001567821979522705	5.129500031471252E-4	0		0.5475770263671875	-2.347898193359375	0		-1.0350330810546875	0.03498876571655273	0		-0.7175064697265625	-2.61204541015625	0		1.3366861572265625	-0.80550439453125	0		3.187137939453125	-0.1860546417236328	0		4.76051513671875	-0.10552939605712891	0		5.583677734375	0.10020726013183594	0		-0.1012149200439453	5.978712890625	0		
-0.0014167200326919555	-0.003492403984069824	0		0.5455576171875	-2.35093017578125	0		-1.0231082153320312	0.024781818389892577	0		-0.7154572143554687	-2.61011083984375	0		1.3367440185546875	-0.8055833129882812	0		3.183134765625	-0.19111236572265625	0		4.74472412109375	-0.09644261932373047	0		5.57862060546875	0.09111421203613282	0		-0.08389579772949218	5.98640966796875	0		
0.0017132209539413453	4.0601900219917295E-4	0		0.516517578125	-2.354564453125	0		-1.0098739624023438	0.03555318069458008	0		-0.702537841796875	-2.6163447265625	0		1.3773424072265625	-0.8362805786132812	0		3.20339306640625	-0.17854241943359375	0		4.75785107421875	-0.09280268096923829	0		5.596916015625	0.10565895080566406	0		-0.1006263198852539	5.990609375	0		
0.0017779090404510499	3.44868004322052E-4	0		0.5694448852539062	-2.360431884765625	0		-1.0098084716796876	0.035516265869140626	0		-0.6754189453125	-2.608794677734375	0		1.3429456787109375	-0.7988540649414062	0		3.19041015625	-0.18148503112792969	0		4.755853515625	-0.09694734954833985	0		5.57801513671875	0.10774839782714844	0		-0.11853603363037109	5.9828212890625	0		
0.0018351809978485107	2.7978500723838806E-4	0		0.5226907348632812	-2.343806640625	0		-1.0288382568359375	0.029761621475219727	0		-0.6903628540039063	-2.60461865234375	0		1.3368792724609375	-0.8058606567382812	0		3.1833134765625	-0.19152084350585938	0		4.75590869140625	-0.09712721252441406	0		5.5839541015625	0.09945948028564452	0		-0.1183343276977539	5.98275927734375	0		
-0.001176751971244812	-0.0037426838874816894	0		0.5476209716796875	-2.348262451171875	0		-0.9528133544921875	0.027574609756469727	0		-0.6924056396484375	-2.60664013671875	0		1.3399681396484375	-0.8020054321289063	0		3.18335693359375	-0.19166313171386717	0		4.7559541015625	-0.09730619049072266	0		5.55915771484375	0.10963607788085937	0		0.04728573608398438	6.01020849609375	0		
0.001919355034828186	1.4188200235366823E-4	0		0.5124295654296875	-2.359815673828125	0		-1.0228287963867186	0.02458028793334961	0		-0.6795177001953125	-2.61289013671875	0		1.3369271240234375	-0.80605859375	0		3.18338916015625	-0.19180191040039063	0		4.76085205078125	-0.1065533447265625	0		5.5689091796875	0.09029734802246094	0		-0.11798094177246093	5.98262646484375	0		
0.0019416110515594483	7.167699933052063E-5	0		0.5584910278320312	-2.35459033203125	0		-1.0187612915039062	0.027469404220581056	0		-0.713482177734375	-2.608434814453125	0		1.33999365234375	-0.8022005615234375	0		3.185663818359375	-0.17496629333496094	0		4.7560087890625	-0.09764200592041015	0		5.583037109375	0.09690658569335937	0		-0.06859114074707032	5.99881787109375	0		
0.009036829948425293	0.005896330833435059	0		0.4976896057128906	-2.338749267578125	0		-1.0146954345703125	0.0313570556640625	0		-0.6775557250976563	-2.611034912109375	0		1.3399853515625	-0.8022924194335938	0		3.18748486328125	-0.1871185760498047	0		4.75601220703125	-0.09779234313964844	0		5.57821044921875	0.10781633758544922	0		-0.10256977081298828	5.99326416015625	0		
0.0019319210052490235	-6.375499814748764E-5	0		0.5474988403320312	-2.34857763671875	0		-1.0346624755859375	0.03460727691650391	0		-0.7156043701171875	-2.61051708984375	0		1.3399586181640626	-0.8023782958984375	0		3.206525146484375	-0.18351887512207032	0		4.75599560546875	-0.09792778015136719	0		5.578197265625	0.1076689682006836	0		-0.08357566833496094	5.98791259765625	0		
-0.051101669311523434	6.746289730072022E-4	0		0.5204652099609375	-2.3462392578125	0		-1.0228543701171875	0.024375699996948243	0		-0.6546360473632813	-2.6084951171875	0		1.3368494873046874	-0.8064113159179688	0		3.183349853515625	-0.19227052307128906	0		4.755955078125	-0.09804637145996094	0		5.58402197265625	0.09845108032226563	0		-0.08453040313720703	5.988865234375	0		
0.0018264520168304443	-1.8682099878787993E-4	0		0.5562088623046875	-2.357846923828125	0		-1.022919921875	0.024324596405029295	0		-0.7157623901367187	-2.610625732421875	0		1.3398370361328125	-0.8025283203125	0		3.187357666015625	-0.18741839599609375	0		4.74976806640625	-0.10605475616455078	0		5.5739580078125	0.09849530029296875	0		-0.06841106414794922	5.99756298828125	0		
0.001737254023551941	-2.4298100173473358E-4	0		0.5430941162109375	-2.358708984375	0		-1.009843994140625	0.0350755500793457	0		-0.7029570922851562	-2.616874267578125	0		1.3802696533203125	-0.8342083740234375	0		3.215294677734375	-0.185914794921875	0		4.74967822265625	-0.10613492584228515	0		5.58795849609375	0.10419832611083985	0		-0.10057223510742187	5.99099267578125	0		
0.008720251083374023	0.0055978760719299315	0		0.5600724487304688	-2.353020263671875	0		-1.0099509887695313	0.03502457809448242	0		-0.7207631225585938	-2.596655517578125	0		1.3447257080078125	-0.7967220458984375	0		3.190235595703125	-0.18259385681152343	0		4.75569140625	-0.09828618621826171	0		5.59272998046875	0.09606279754638672	0		0.048615325927734376	6.00868212890625	0		
0.001510807991027832	-3.4450298547744753E-4	0		0.5490496826171875	-2.34690234375	0		-0.9591065673828125	0.03220174026489258	0		-0.6451738891601563	-2.6168544921875	0		1.339517578125	-0.802692138671875	0		3.182966064453125	-0.19252967834472656	0		4.760435546875	-0.10740078735351563	0		5.56777978515625	0.10740167236328126	0		-0.08384866333007812	5.9876337890625	0		
